PathFileType	4	(X/Y/Z)	C:\Data\Karen\RERC_Shoulder\RERC1A_4\RERC1A4_1.trc
DataRate	CameraRate	NumFrames	NumMarkers	Units	OrigDataRate	OrigDataStartFrame	OrigNumFrames
120.00	120.00	       14	11	mm	120.00	36	       107
Frame#	Time	xyphoid process (ribcage)			T8 (posterior)			sternal notch (ribcage)			C7 (posterior)			Acromion process			Glenohumeral cntr of rot. (post)			Medial epicondyle			lateral epicondyle			ulnar styloid			radial styloid			2nd metacarpal head			
		X1	Y1	Z1	X2	Y2	Z2	X3	Y3	Z3	X4	Y4	Z4	X5	Y5	Z5	X6	Y6	Z6	X7	Y7	Z7	X8	Y8	Z8	X9	Y9	Z9	X10	Y10	Z10	X11	Y11	Z11	

36	0.292	1117.50476	230.30688	830.68945	1426.29956	223.83069	799.47205	1192.45972	222.61201	1052.02625	1402.53357	213.52448	1045.62061	1291.72864	370.69485	1117.37073	1398.51160	400.67065	1031.18384	1309.00159	467.82401	771.68213	1286.29114	555.39349	811.08246	1035.50696	562.83191	821.67737	1025.00073	465.24744	813.59393	951.77020	515.00879	865.94867	
37	0.300	1117.50476	230.30688	830.68945	1426.29956	223.83069	799.47205	1192.45972	222.61201	1052.02625	1402.53357	213.52448	1045.62061	1291.55127	370.68896	1117.34387	1398.51160	400.67065	1031.18384	1309.00159	467.82401	771.68213	1286.68823	555.59247	811.57849	1035.50696	562.83191	821.67737	1025.00073	465.24744	813.59393	951.54395	515.02612	865.73724	
38	0.308	1117.90112	230.67877	830.48157	1426.29956	223.83069	799.47205	1192.45972	222.61201	1052.02625	1402.53357	213.52448	1045.62061	1291.72058	370.64310	1117.40820	1398.46423	400.79492	1031.09644	1309.00159	467.82401	771.68213	1286.29114	555.39349	811.08246	1035.50696	562.83191	821.67737	1025.00073	465.24744	813.59393	951.54395	515.02612	865.73724	
39	0.317	1117.54041	230.90787	829.93066	1426.29956	223.83069	799.47205	1192.45972	222.61201	1052.02625	1402.53357	213.52448	1045.62061	1291.55933	370.74072	1117.30652	1398.46423	400.79492	1031.09644	1308.78552	467.73108	771.72461	1286.18225	555.57440	811.10632	1035.50696	562.83191	821.67737	1025.00073	465.24744	813.59393	951.59198	515.08929	865.67780	
40	0.325	1117.51917	230.94789	830.36627	1426.29956	223.83069	799.47205	1192.45972	222.61201	1052.02625	1402.53357	213.52448	1045.62061	1291.55933	370.74072	1117.30652	1398.46423	400.79492	1031.09644	1308.78552	467.73108	771.72461	1286.18225	555.57440	811.10632	1035.13489	562.73456	821.59119	1025.00073	465.24744	813.59393	951.53729	515.14343	865.66284	
41	0.333	1117.29614	231.04454	829.75061	1426.29956	223.83069	799.47205	1192.27405	222.76334	1051.81836	1402.55640	213.49539	1045.49316	1291.72864	370.69485	1117.37073	1398.46423	400.79492	1031.09644	1308.78552	467.73108	771.72461	1286.14050	555.71954	811.04413	1034.76282	562.63721	821.50500	1025.00073	465.24744	813.59393	951.59198	515.08929	865.67780	
42	0.342	1117.38904	230.84491	830.24927	1426.25635	223.96637	799.56696	1192.27405	222.76334	1051.81836	1402.53357	213.52448	1045.62061	1291.56934	370.78455	1117.27124	1398.46423	400.79492	1031.09644	1308.03601	467.41159	771.36426	1286.23242	555.57495	811.01605	1034.51965	562.66058	821.55096	1025.08386	465.22403	813.64258	951.54395	515.02612	865.73724	
43	0.350	1117.29614	231.04454	829.75061	1426.25635	223.96637	799.56696	1192.27405	222.76334	1051.81836	1402.38416	213.48817	1045.65259	1291.61084	370.75443	1117.25793	1398.46423	400.79492	1031.09644	1308.03601	467.41159	771.36426	1286.14050	555.71954	811.04413	1034.51965	562.66058	821.55096	1025.08386	465.22403	813.64258	951.54395	515.02612	865.73724	
44	0.358	1117.04553	231.25902	829.96381	1426.25635	223.96637	799.56696	1192.27405	222.76334	1051.81836	1402.38416	213.48817	1045.65259	1291.55933	370.74072	1117.30652	1398.32141	400.97632	1031.07642	1308.03601	467.41159	771.36426	1286.14050	555.71954	811.04413	1034.59766	562.61365	821.58038	1024.90527	465.30005	813.75690	951.54395	515.02612	865.73724	
45	0.367	1117.29614	231.04454	829.75061	1426.25635	223.96637	799.56696	1192.27405	222.76334	1051.81836	1402.38416	213.48817	1045.65259	1291.56934	370.78455	1117.27124	1398.23096	401.05621	1031.04749	1308.03601	467.41159	771.36426	1286.14050	555.71954	811.04413	1034.59766	562.61365	821.58038	1024.93311	465.17905	813.75537	951.09424	515.03516	865.56323	
46	0.375	1117.21814	231.08430	829.61230	1426.21313	224.10207	799.66187	1192.27856	222.34344	1051.92224	1402.38416	213.48817	1045.65259	1291.56934	370.78455	1117.27124	1398.23096	401.05621	1031.04749	1308.03601	467.41159	771.36426	1286.14050	555.71954	811.04413	1034.51965	562.66058	821.55096	1024.83191	465.19501	813.69202	951.54395	515.02612	865.73724	
47	0.383	1117.21814	231.08430	829.61230	1426.21313	224.10207	799.66187	1192.27405	222.76334	1051.81836	1402.38416	213.48817	1045.65259	1291.46521	371.00894	1117.14282	1398.23096	401.05621	1031.04749	1308.26514	467.71707	771.39703	1285.94666	555.78613	811.01764	1034.51965	562.66058	821.55096	1024.75452	465.25507	813.86969	951.54395	515.02612	865.73724	
48	0.392	1117.04553	231.25902	829.96381	1426.14258	224.19838	799.58862	1192.02441	222.62613	1051.76025	1402.37097	213.81268	1045.75464	1291.36475	370.76392	1117.22375	1398.23096	401.05621	1031.04749	1308.26514	467.71707	771.39703	1285.78735	555.84521	810.99011	1034.51965	562.66058	821.55096	1024.75452	465.25507	813.86969	951.54395	515.02612	865.73724	
49	0.400	1117.21814	231.08430	829.61230	1426.14258	224.19838	799.58862	1191.75378	222.87146	1051.59583	1402.39380	213.78362	1045.62720	1291.18921	370.71732	1117.23901	1398.06165	401.21033	1030.98608	1308.26514	467.71707	771.39703	1285.67090	555.96307	811.08698	1034.51965	562.66058	821.55096	1024.37292	465.19748	813.85571	951.54395	515.02612	865.73724	
